<?xml version="1.0" encoding="utf-8"?>
  
<svg xmlns="http://www.w3.org/2000/svg" xmlns:xlink="http://www.w3.org/1999/xlink">
  
  <symbol id="alarm-svg">
    <path d="M2.143 17.6l2.143-4.4V7.333c0-3.24 2.558-5.866 5.714-5.866 3.156 0 5.714 2.626 5.714 5.866V13.2l2.143 4.4H2.143zM10 20.533c-.932 0-1.716-.613-2.011-1.466h4.022c-.295.853-1.079 1.466-2.011 1.466zm7.143-7.333V7.333C17.143 3.283 13.944 0 10 0S2.857 3.284 2.857 7.333V13.2L0 19.067h6.5C6.832 20.74 8.273 22 10 22s3.169-1.26 3.5-2.933H20L17.143 13.2z" fill-rule="evenodd"/>
  </symbol>

  <symbol id="home-svg">
    <path d="M32 19l-6-6v-9h-4v5l-6-6-16 16v1h4v10h10v-6h4v6h10v-10h4z"></path>
  </symbol>

  <symbol id="info-svg">
    <path d="M16 3c-7.18 0-13 5.82-13 13s5.82 13 13 13 13-5.82 13-13-5.82-13-13-13zM18.039 20.783c-0.981 1.473-1.979 2.608-3.658 2.608-1.146-0.187-1.617-1.008-1.369-1.845l2.16-7.154c0.053-0.175-0.035-0.362-0.195-0.419-0.159-0.056-0.471 0.151-0.741 0.447l-1.306 1.571c-0.035-0.264-0.004-0.7-0.004-0.876 0.981-1.473 2.593-2.635 3.686-2.635 1.039 0.106 1.531 0.937 1.35 1.85l-2.175 7.189c-0.029 0.162 0.057 0.327 0.204 0.379 0.16 0.056 0.496-0.151 0.767-0.447l1.305-1.57c0.035 0.264-0.024 0.726-0.024 0.902zM17.748 11.439c-0.826 0-1.496-0.602-1.496-1.488s0.67-1.487 1.496-1.487 1.496 0.602 1.496 1.487c0 0.887-0.67 1.488-1.496 1.488z"></path>
  </symbol>
</svg>